<svg xmlns="http://www.w3.org/2000/svg" baseProfile="full" version="1.1" width="1330px" height="655px" style="fill: none; width: 1330px; height: 655px; stroke-width: 10;"><path d="" style="stroke-width: 10; stroke-linecap: round; stroke-linejoin: round; stroke: rgb(153, 153, 153); fill: none;"/><path d="" style="stroke-width: 10; stroke-linecap: round; stroke-linejoin: round; stroke: rgb(204, 204, 204); fill: none;"/><path d="M65,245 L65,245 L65,5 L245,5 L245,65 M65,5 L65,5 L185,125 M395,155 L395,155 L485,245 M425,5 L425,5 L425,5 L365,5 M545,125 L545,125 L605,65 M545,125 L545,125 L665,245 M65,305 L65,305 L65,545 L65,545 L245,545 M245,485 L245,485 L245,485 L245,545 M185,545 L185,545 L185,485 M125,545 L125,545 L125,485 M125,425 L125,425 L245,425 M305,305 L305,305 L365,365 L365,365 L485,365 L485,365 L485,305 M305,305 L305,305 L305,545 M845,245 L845,245 L845,245 L845,125 M905,125 L905,125 L905,245 M425,305 L425,305 L425,365 M425,425 L425,425 L425,545 M545,305 L545,305 L725,305 M545,545 L545,545 L725,545 M605,305 L605,305 L605,365 L605,365 L665,425 M545,5 L545,5 L725,185 L725,5 M305,5 L305,5 L305,245 L485,65 M785,125 L785,125 L965,125 L965,5 L785,5 L785,65 L845,5 M1025,65 L1025,65 L1025,5 L1205,125 M1085,50 L1085,50 L1085,245 M725,425 L725,425 L545,425 L605,485 L605,425 M1145,5 L1145,5 L1145,80 M785,545 L785,545 L785,305 L965,485 M875,395 L875,395 L785,485 M785,545 L785,545 L905,425 L905,425 M905,305 L905,305 L965,365 " style="stroke-width: 10; stroke-linecap: round; stroke-linejoin: miter; stroke: rgb(0, 0, 0); fill: none;"/></svg>