<svg xmlns="http://www.w3.org/2000/svg" baseProfile="full" version="1.1" width="1030px" height="565px" style="fill: none; width: 1030px; height: 565px; stroke-width: 10;"><path d="" style="stroke-width: 10; stroke-linecap: round; stroke-linejoin: round; stroke: rgb(153, 153, 153); fill: none;"/><path d="" style="stroke-width: 10; stroke-linecap: round; stroke-linejoin: round; stroke: rgb(204, 204, 204); fill: none;"/><path d="M65,5 L65,5 L245,5 L245,245 L65,245 L65,5 M365,185 L365,185 L425,245 L365,245 M605,245 L605,245 L665,245 L665,185 L605,185 L605,245 M425,305 L425,305 L365,305 L425,365 L365,365 L425,425 M605,425 L605,425 L605,485 L665,425 M605,365 L605,365 L605,425 L665,365 M785,65 A120,0 0 0,1 905,65 A120,60 0 0,1 785,125 L785,125 L845,185 " style="stroke-width: 10; stroke-linecap: square; stroke-linejoin: miter; stroke: rgb(0, 0, 0); fill: none;"/></svg>