<svg xmlns="http://www.w3.org/2000/svg" baseProfile="full" version="1.1" width="1210px" height="655px" style="fill: none; width: 1210px; height: 655px; stroke-width: 10;"><path d="" style="stroke-width: 10; stroke-linecap: round; stroke-linejoin: round; stroke: rgb(153, 153, 153); fill: none;"/><path d="" style="stroke-width: 10; stroke-linecap: round; stroke-linejoin: round; stroke: rgb(204, 204, 204); fill: none;"/><path d="M245,65 L245,65 L65,245 L65,5 L245,185 M185,245 L185,245 L185,125 M305,5 L305,5 L425,125 L425,5 M305,245 L305,245 L305,185 L485,185 L485,245 M305,125 L305,125 L305,185 M725,5 L725,5 L725,245 L545,65 L545,245 M665,5 L665,5 L665,185 M785,245 L785,245 L785,5 L905,125 L905,5 M845,245 L845,245 L965,245 L965,5 M905,125 L905,125 L965,185 M65,305 L65,305 L65,485 L125,425 L245,545 M65,305 L65,305 L245,305 L245,425 L125,305 M305,305 L305,305 L485,305 L485,365 L305,365 M305,425 L305,425 L485,425 L485,485 L305,485 M380,365 L380,365 L380,425 M425,485 L425,485 L425,545 M545,305 L545,305 L545,425 L725,425 M545,305 L545,305 L725,305 L725,365 L665,305 M545,485 L545,485 L545,545 L725,545 L725,485 M785,305 L785,305 L965,305 L905,365 L965,425 L785,425 L785,425 L785,545 M905,425 L905,425 L905,545 M845,425 L845,425 L845,545 " style="stroke-width: 10; stroke-linecap: round; stroke-linejoin: miter; stroke: rgb(0, 0, 0); fill: none;"/></svg>