<svg xmlns="http://www.w3.org/2000/svg" baseProfile="full" version="1.1" width="1120px" height="565px" style="fill: none; width: 1120px; height: 565px; stroke-width: 10;"><path d="" style="stroke-width: 10; stroke-linecap: round; stroke-linejoin: round; stroke: rgb(153, 153, 153); fill: none;"/><path d="" style="stroke-width: 10; stroke-linecap: round; stroke-linejoin: round; stroke: rgb(204, 204, 204); fill: none;"/><path d="M245,185 L245,185 L245,185 L65,5 L65,245 L245,245 M125,5 L125,5 L125,245 M185,125 L185,125 L185,5 M305,5 L305,5 L425,125 L305,245 M485,5 L485,5 L395,95 M365,185 L365,185 L485,185 L485,245 M425,185 L425,185 L425,245 M545,5 L545,5 L545,245 L665,125 L665,125 L665,245 M605,185 L605,185 L605,245 M725,65 L725,65 L725,245 M65,305 L65,305 L245,305 L185,365 L65,365 M125,365 L125,365 L125,425 M185,365 L185,365 L185,425 M245,545 L245,545 L245,425 L65,425 L185,545 M485,305 L485,305 L305,305 L365,365 L485,365 M485,425 L485,425 L305,425 L365,485 L485,485 L485,545 M365,365 L365,365 L365,425 M365,485 L365,485 L365,545 " style="stroke-width: 10; stroke-linecap: round; stroke-linejoin: miter; stroke: rgb(0, 0, 0); fill: none;"/></svg>