<svg xmlns="http://www.w3.org/2000/svg" baseProfile="full" version="1.1" width="1330px" height="655px" style="fill: none; width: 1330px; height: 655px; stroke-width: 10;"><path d="" style="stroke-width: 10; stroke-linecap: round; stroke-linejoin: round; stroke: rgb(153, 153, 153); fill: none;"/><path d="" style="stroke-width: 10; stroke-linecap: round; stroke-linejoin: round; stroke: rgb(204, 204, 204); fill: none;"/><path d="M65,65 L65,65 L245,65 M65,245 L65,245 L245,245 M305,65 L305,65 L485,65 M305,245 L305,245 L485,245 M545,65 L545,65 L725,65 M545,245 L545,245 L725,245 M365,65 L365,65 L425,65 M545,65 L545,65 L605,125 L605,65 M65,425 L65,425 L245,425 M65,605 L65,605 L245,605 M305,605 L305,605 L485,605 M545,605 L545,605 L725,605 M785,425 L785,425 L965,425 M785,605 L785,605 L965,605 L965,605 L845,485 M785,245 L785,245 L965,245 M785,185 L785,185 L785,65 L965,65 M185,545 L185,545 L65,425 M65,605 L65,605 L65,485 M305,425 L305,425 L485,425 L485,545 L365,425 M125,65 L125,65 L125,245 M365,65 L365,65 L425,65 L365,65 L365,65 L425,65 M365,65 L365,65 L365,125 L425,65 M305,605 L305,605 L425,485 M845,125 L845,125 L845,65 M905,125 L905,125 L905,65 M545,425 L545,425 L725,425 L635,545 L545,425 M305,125 L305,125 L305,245 M125,425 L125,425 L245,545 M665,65 L665,65 L665,245 M1025,425 L1025,425 L1205,425 M1025,605 L1025,605 L1205,605 M1025,65 L1025,65 L1205,65 M1025,245 L1025,245 L1205,245 L1205,245 L1205,185 M1025,65 L1025,65 L1025,125 M1085,65 L1085,65 L1085,185 M1145,125 L1145,125 L1145,245 M785,425 L785,425 L785,545 L905,425 M815,515 L815,515 L905,605 " style="stroke-width: 10; stroke-linecap: round; stroke-linejoin: round; stroke: rgb(255, 255, 255); fill: none;"/></svg>