<svg xmlns="http://www.w3.org/2000/svg" baseProfile="full" version="1.1" width="1225px" height="700px" style="fill: none; width: 1225px; height: 700px; stroke-width: 10;"><path d="" style="stroke-width: 10; stroke-linecap: round; stroke-linejoin: round; stroke: rgb(153, 153, 153); fill: none;"/><path d="" style="stroke-width: 10; stroke-linecap: round; stroke-linejoin: round; stroke: rgb(204, 204, 204); fill: none;"/><path d="M65,245 L65,245 L65,5 L245,5 L245,65 M65,5 L65,5 L185,125 M395,155 L395,155 L485,245 M425,5 L425,5 L425,5 L365,5 M545,5 L545,5 L725,185 M545,125 L545,125 L605,65 M545,125 L545,125 L665,245 M725,5 L725,5 L725,185 M785,5 L785,5 L965,5 L965,5 L965,125 M785,125 L785,125 L965,125 M245,485 L245,485 L245,485 L245,545 M185,545 L185,545 L185,485 M125,545 L125,545 L125,485 M125,425 L125,425 L245,425 M305,305 L305,305 L365,365 L365,365 L485,365 L485,365 L485,305 M305,305 L305,305 L305,545 M845,245 L845,245 L845,245 L845,125 M905,125 L905,125 L905,245 M425,305 L425,305 L425,365 M425,425 L425,425 L425,545 M545,305 L545,305 L725,305 M545,425 L545,425 L725,425 M545,545 L545,545 L725,545 M605,305 L605,305 L605,365 L605,365 L665,425 M545,425 L545,425 L605,485 M785,5 L785,5 L845,65 L845,5 L845,5 M605,425 L605,425 L605,485 M1025,5 L1025,5 L1025,125 M1205,5 L1205,5 L1025,5 M1205,5 L1205,5 L1145,65 M1205,65 L1205,65 L1145,125 M1025,245 L1025,245 L1025,185 L1205,185 L1205,245 M305,5 L305,5 L305,245 L485,65 M65,305 L65,305 L65,545 L245,545 " style="stroke-width: 10; stroke-linecap: round; stroke-linejoin: miter; stroke: rgb(255, 255, 255); fill: none;"/></svg>